<svg width="65" height="65" viewBox="0 0 65 65" fill="none" xmlns="http://www.w3.org/2000/svg">
<circle cx="32.5" cy="32.5" r="32" fill="url(#paint0_radial_334_4)" stroke="white"/>
<path d="M16.8346 43.709L31.9669 13.7094L41.8667 18.7031C43.8953 19.7263 45.501 20.9484 46.6837 22.3694C47.881 23.7617 48.5478 25.3884 48.6844 27.2493C48.8209 29.1102 48.2983 31.2121 47.1165 33.5549C45.9492 35.8691 44.5767 37.5244 42.999 38.5206C41.4212 39.5168 39.7023 39.9758 37.8422 39.8977C35.9964 39.791 34.0593 39.226 32.0308 38.2028L26.4165 35.3709L21.1202 45.8707L16.8346 43.709ZM28.254 31.7281L33.2683 34.2573C35.4682 35.3671 37.3561 35.71 38.9317 35.2862C40.5219 34.8339 41.8429 33.5649 42.895 31.4792C43.947 29.3935 44.1967 27.5841 43.644 26.0509C43.1199 24.532 41.7149 23.1962 39.4293 22.0432L34.415 19.514L28.254 31.7281Z" fill="#779E7B"/>
<defs>
<radialGradient id="paint0_radial_334_4" cx="0" cy="0" r="1" gradientUnits="userSpaceOnUse" gradientTransform="translate(32.5 32.5) rotate(90) scale(32.5)">
<stop stop-color="white"/>
<stop offset="0.0885417" stop-color="white" stop-opacity="0.421875"/>
<stop offset="0.265625" stop-color="white" stop-opacity="0.463976"/>
<stop offset="1" stop-color="#141313" stop-opacity="0"/>
</radialGradient>
</defs>
</svg>
